<?xml version="1.0" encoding="UTF-8"?>
<svg version="1.1" xmlns="http://www.w3.org/2000/svg" width="256" height="256">
    <path d="M0 0 C84.48 0 168.96 0 256 0 C256 84.48 256 168.96 256 256 C171.52 256 87.04 256 0 256 C0 171.52 0 87.04 0 0 Z "
          fill="#FEFEFE" transform="translate(0,0)"/>
    <path d="M0 0 C2.37963584 0.02678399 4.75454133 0.00016168 7.1340332 -0.03173828 C20.43698894 -0.06361908 30.46835428 2.75923125 40.25708008 12.26513672 C50.65601067 23.59088821 51.90638448 34.96788014 51.63598633 49.77685547 C51.62090401 51.22475813 51.60722191 52.67267608 51.5949707 54.12060547 C51.56226481 57.63134541 51.51068144 61.14149946 51.44848633 64.65185547 C52.8503418 64.82974609 52.8503418 64.82974609 54.28051758 65.01123047 C59.14211026 65.99433922 61.19662646 68.97277236 64.06776428 72.82374573 C65.84276398 76.45944775 65.87664132 79.69301692 65.85253906 83.65161133 C65.85940231 84.44249649 65.86626556 85.23338165 65.87333679 86.04823303 C65.89159188 88.65457265 65.88776919 91.26030957 65.88208008 93.86669922 C65.88664257 95.68364151 65.89194835 97.50058208 65.89796448 99.31752014 C65.90689308 103.12296566 65.90447539 106.9282013 65.89453125 110.73364258 C65.88304302 115.60393884 65.90325193 120.4735099 65.93244839 125.3437109 C65.9508181 129.09530723 65.95051638 132.84673003 65.94481087 136.59836006 C65.94465774 138.39366231 65.95069495 140.18897638 65.96310234 141.98423576 C65.97802505 144.49751802 65.96732673 147.00946387 65.95019531 149.52270508 C65.95986328 150.26003876 65.96953125 150.99737244 65.97949219 151.75704956 C65.90691718 156.85643805 64.6305544 159.71095199 61.44848633 163.65185547 C57.4952267 167.21943123 54.58373148 168.76307317 49.26924133 168.81248474 C47.99303169 168.82755318 47.99303169 168.82755318 46.69104004 168.84292603 C45.7606189 168.84875702 44.83019775 168.85458801 43.87158203 168.8605957 C42.8891301 168.87037949 41.90667816 168.88016327 40.89445496 168.89024353 C37.63773961 168.92019763 34.38106537 168.94158398 31.12426758 168.96044922 C30.01168264 168.96702105 28.89909771 168.97359287 27.75279808 168.98036385 C21.86271816 169.01295874 15.97265634 169.03740841 10.08251953 169.05688477 C5.21018116 169.07469344 0.33842201 169.10950748 -4.53369141 169.15942383 C-10.41812427 169.2196414 -16.30202028 169.25036301 -22.1867466 169.26005745 C-24.42702287 169.26861105 -26.66728485 169.28742665 -28.90738487 169.31680107 C-32.04810265 169.35576511 -35.1867341 169.35674321 -38.32763672 169.34887695 C-39.24793671 169.36887756 -40.16823669 169.38887817 -41.11642456 169.40948486 C-46.89200937 169.34475689 -50.5043317 168.18127691 -54.93205643 164.39713383 C-59.44341607 159.53527139 -59.99625984 154.06707918 -59.95556641 147.71630859 C-59.96242966 146.95599838 -59.96929291 146.19568817 -59.97636414 145.41233826 C-59.99454632 142.91906641 -59.99080761 140.42642887 -59.98510742 137.93310547 C-59.98967288 136.18867795 -59.99497954 134.44425223 -60.00099182 132.6998291 C-60.00990569 129.05176464 -60.00751895 125.40391931 -59.99755859 121.75585938 C-59.98606242 117.09197193 -60.00629885 112.42884091 -60.03547573 107.7650528 C-60.05386133 104.16525509 -60.05354074 100.56563795 -60.04783821 96.96580505 C-60.04768533 95.24668821 -60.05370204 93.52755887 -60.06612968 91.80848694 C-60.0810857 89.40098178 -60.07033079 86.99486542 -60.05322266 84.58740234 C-60.06289063 83.88485825 -60.07255859 83.18231415 -60.08251953 82.45848083 C-59.98701567 76.007887 -57.71513441 71.75999875 -53.11401367 67.27685547 C-50.47567453 65.60376235 -48.58947007 65.16917025 -45.55151367 64.65185547 C-45.57769775 63.7150293 -45.60388184 62.77820313 -45.63085938 61.81298828 C-45.71696053 58.27913522 -45.77918041 54.74642385 -45.82617188 51.21191406 C-45.85105076 49.69317853 -45.88496752 48.17455929 -45.92871094 46.65625 C-46.25181539 35.13852643 -45.15659776 26.14943986 -38.27026367 16.43310547 C-37.53807617 15.68029297 -36.80588867 14.92748047 -36.05151367 14.15185547 C-35.31932617 13.37841797 -34.58713867 12.60498047 -33.83276367 11.80810547 C-23.48516461 2.02749814 -13.8007357 -0.18452079 0 0 Z "
          fill="#242021" transform="translate(120.551513671875,40.34814453125)"/>
    <path d="M0 0 C1.21107422 -0.01546875 2.42214844 -0.0309375 3.66992188 -0.046875 C13.10622585 -0.00600308 20.96602853 1.30427026 28 7.9375 C39.28659731 20.41634351 36.0625 33.00296888 36.0625 50.5 C12.6325 50.5 -10.7975 50.5 -34.9375 50.5 C-34.9375 17.46153846 -34.9375 17.46153846 -26.6875 7.625 C-18.74352724 0.40435854 -10.39208746 -0.13231305 0 0 Z "
          fill="#FDFDFD" transform="translate(122.9375,53.5)"/>
    <path d="M0 0 C4.15553935 2.31222618 7.00417374 5.02027132 8.875 9.4375 C9.89983893 15.09382253 9.06207693 19.601935 5.875 24.4375 C3.3125 27.3125 3.3125 27.3125 0.875 29.4375 C0.215 29.4375 -0.445 29.4375 -1.125 29.4375 C-1.10928955 30.05794189 -1.0935791 30.67838379 -1.07739258 31.31762695 C-1.01503786 34.12832528 -0.97600852 36.93887812 -0.9375 39.75 C-0.91236328 40.72646484 -0.88722656 41.70292969 -0.86132812 42.70898438 C-0.85166016 43.64677734 -0.84199219 44.58457031 -0.83203125 45.55078125 C-0.8163208 46.41485596 -0.80061035 47.27893066 -0.78442383 48.16918945 C-1.125 50.4375 -1.125 50.4375 -2.45581055 52.21948242 C-5.04052668 54.10556532 -7.02440064 53.82507492 -10.125 53.4375 C-11.79418945 52.21948242 -11.79418945 52.21948242 -13.125 50.4375 C-13.46557617 48.16918945 -13.46557617 48.16918945 -13.41796875 45.55078125 C-13.40830078 44.61298828 -13.39863281 43.67519531 -13.38867188 42.70898438 C-13.36353516 41.73251953 -13.33839844 40.75605469 -13.3125 39.75 C-13.29896484 38.76193359 -13.28542969 37.77386719 -13.27148438 36.75585938 C-13.23612203 34.31585769 -13.18677033 31.87695281 -13.125 29.4375 C-13.90488281 29.15519531 -14.68476562 28.87289062 -15.48828125 28.58203125 C-19.5646574 26.81258205 -21.3477582 23.91425942 -23.375 20.0625 C-24.74956688 15.25151592 -24.8317882 11.79670808 -22.5 7.3125 C-16.39416212 -0.07877743 -9.55253855 -4.22550854 0 0 Z "
          fill="#FBFBFB" transform="translate(132.125,129.5625)"/>
</svg>
